<svg height="1534" width="720" xmlns="http://www.w3.org/2000/svg">
<rect height="1534" fill="#555" width="720"></rect>
<text fill="#7f7" font-family="Courier New" font-size="12" xml:space="preserve">
<tspan x="10" y="26"></tspan>
<tspan x="10" y="42">&gt; npmdoc-gulp-concat@0.0.6 test /home/travis/build/npmdoc/node-npmdoc-gulp-concat</tspan>
<tspan x="10" y="58">&gt; (set -e; export PORT=$(utility2 shServerPortRandom); utility2 test test.js)</tspan>
<tspan x="10" y="74"></tspan>
<tspan x="10" y="90"></tspan>
<tspan x="10" y="106">[MODE_BUILD=npmTest] - 2017-04-11T05:12:54Z - npm-testing /home/travis/build/npmdoc/node-npmdoc-\</tspan>
<tspan x="10" y="122">gulp-concat</tspan>
<tspan x="10" y="138"></tspan>
<tspan x="10" y="154">merging file:///home/travis/build/npmdoc/node-npmdoc-gulp-concat/tmp/build/test-report.json to t\</tspan>
<tspan x="10" y="170">est-report</tspan>
<tspan x="10" y="186">&gt; server listening on http-port 41296</tspan>
<tspan x="10" y="202">created apidoc file:///home/travis/build/npmdoc/node-npmdoc-gulp-concat/tmp/build/apidoc.html</tspan>
<tspan x="10" y="218"></tspan>
<tspan x="10" y="234"></tspan>
<tspan x="10" y="250">browserTest - created electron entry-page /home/travis/build/npmdoc/node-npmdoc-gulp-concat/tmp/\</tspan>
<tspan x="10" y="266">electron.15b5b6dd2a90.e47fdd2897939.html</tspan>
<tspan x="10" y="282"></tspan>
<tspan x="10" y="298">[node test-case 1 of 6 passed] - testCase_buildLib_default</tspan>
<tspan x="10" y="314">[node test-case 2 of 6 passed] - testCase_buildReadme_default</tspan>
<tspan x="10" y="330">[node test-case 3 of 6 passed] - testCase_buildTest_default</tspan>
<tspan x="10" y="346"></tspan>
<tspan x="10" y="362">browserTest - created electron entry-page /home/travis/build/npmdoc/node-npmdoc-gulp-concat/tmp/\</tspan>
<tspan x="10" y="378">electron.15b5b6dd2d00.ad87393c9b61e.html</tspan>
<tspan x="10" y="394"></tspan>
<tspan x="10" y="410">(node:5945) DeprecationWarning: node --debug is deprecated. Please use node --inspect instead.</tspan>
<tspan x="10" y="426">Xlib:  extension "RANDR" missing on display ":99.0".</tspan>
<tspan x="10" y="442">Xlib:  extension "RANDR" missing on display ":99.0".</tspan>
<tspan x="10" y="458">merging file:///home/travis/build/npmdoc/node-npmdoc-gulp-concat/tmp/build/test-report.json to t\</tspan>
<tspan x="10" y="474">est-report</tspan>
<tspan x="10" y="490">Xlib:  extension "RANDR" missing on display ":99.0".</tspan>
<tspan x="10" y="506">[5972:0411/051256:WARNING:audio_manager.cc(314)] Multiple instances of AudioManager detected</tspan>
<tspan x="10" y="522">[5972:0411/051256:WARNING:audio_manager.cc(275)] Multiple instances of AudioManager detected</tspan>
<tspan x="10" y="538">[5995:0411/051256:ERROR:sandbox_linux.cc(343)] InitializeSandbox() called with multiple threads \</tspan>
<tspan x="10" y="554">in process gpu-process. </tspan>
<tspan x="10" y="570">merging file:///home/travis/build/npmdoc/node-npmdoc-gulp-concat/tmp/build/test-report.json to t\</tspan>
<tspan x="10" y="586">est-report</tspan>
<tspan x="10" y="602">[5972:0411/051256:ERROR:browser_gpu_channel_host_factory.cc(131)] Failed to create channel.</tspan>
<tspan x="10" y="618">Xlib:  extension "RANDR" missing on display ":99.0".</tspan>
<tspan x="10" y="634">[5968:0411/051256:WARNING:audio_manager.cc(314)] Multiple instances of AudioManager detected</tspan>
<tspan x="10" y="650">[5968:0411/051256:WARNING:audio_manager.cc(275)] Multiple instances of AudioManager detected</tspan>
<tspan x="10" y="666">[6030:0411/051256:ERROR:sandbox_linux.cc(343)] InitializeSandbox() called with multiple threads \</tspan>
<tspan x="10" y="682">in process gpu-process. </tspan>
<tspan x="10" y="698">[5968:0411/051256:ERROR:browser_gpu_channel_host_factory.cc(131)] Failed to create channel.</tspan>
<tspan x="10" y="714"></tspan>
<tspan x="10" y="730">browserTest - opened url http://127.0.0.1:41296?modeTest=1</tspan>
<tspan x="10" y="746"></tspan>
<tspan x="10" y="762">&gt; </tspan>
<tspan x="10" y="778">browserTest - opened url /home/travis/build/npmdoc/node-npmdoc-gulp-concat/tmp/build/apidoc.html</tspan>
<tspan x="10" y="794"></tspan>
<tspan x="10" y="810">server listening on http-port 65077</tspan>
<tspan x="10" y="826">[node test-case 4 of 6 passed] - testCase_buildApp_default</tspan>
<tspan x="10" y="842"></tspan>
<tspan x="10" y="858">browserTest - created screenCapture file:///home/travis/build/npmdoc/node-npmdoc-gulp-concat/tmp\</tspan>
<tspan x="10" y="874">/build/screenCapture.npmTest.browser.%2F.png</tspan>
<tspan x="10" y="890"></tspan>
<tspan x="10" y="906">browserTest - created screenCapture file:///home/travis/build/npmdoc/node-npmdoc-gulp-concat/tmp\</tspan>
<tspan x="10" y="922">/build/screenCapture.npmTest.browser.%2F.html</tspan>
<tspan x="10" y="938"></tspan>
<tspan x="10" y="954">browserTest - exit-code 0 - http://127.0.0.1:41296?modeTest=1</tspan>
<tspan x="10" y="970"></tspan>
<tspan x="10" y="986"></tspan>
<tspan x="10" y="1002">browserTest - merging test-report from /home/travis/build/npmdoc/node-npmdoc-gulp-concat/tmp/tes\</tspan>
<tspan x="10" y="1018">t-report.npmTest.browser.%2F.json</tspan>
<tspan x="10" y="1034"></tspan>
<tspan x="10" y="1050">[node test-case 5 of 6 passed] - testCase_webpage_default</tspan>
<tspan x="10" y="1066"></tspan>
<tspan x="10" y="1082">browserTest - created screenCapture file:///home/travis/build/npmdoc/node-npmdoc-gulp-concat/tmp\</tspan>
<tspan x="10" y="1098">/build/screenCapture.npmTest.browser.%2Fhome%2Ftravis%2Fbuild%2Fnpmdoc%2Fnode-npmdoc-gulp-concat\</tspan>
<tspan x="10" y="1114">%2Ftmp%2Fbuild%2Fapidoc.html.png</tspan>
<tspan x="10" y="1130"></tspan>
<tspan x="10" y="1146">browserTest - created screenCapture file:///home/travis/build/npmdoc/node-npmdoc-gulp-concat/tmp\</tspan>
<tspan x="10" y="1162">/build/screenCapture.npmTest.browser.%2Fhome%2Ftravis%2Fbuild%2Fnpmdoc%2Fnode-npmdoc-gulp-concat\</tspan>
<tspan x="10" y="1178">%2Ftmp%2Fbuild%2Fapidoc.html.html</tspan>
<tspan x="10" y="1194"></tspan>
<tspan x="10" y="1210">browserTest - exit-code 0 - /home/travis/build/npmdoc/node-npmdoc-gulp-concat/tmp/build/apidoc.h\</tspan>
<tspan x="10" y="1226">tml</tspan>
<tspan x="10" y="1242"></tspan>
<tspan x="10" y="1258">[node test-case 6 of 6 passed] - testCase_buildApidoc_default</tspan>
<tspan x="10" y="1274">merging file:///home/travis/build/npmdoc/node-npmdoc-gulp-concat/tmp/build/test-report.json to t\</tspan>
<tspan x="10" y="1290">est-report</tspan>
<tspan x="10" y="1306"></tspan>
<tspan x="10" y="1322">-------------------------------------------------------</tspan>
<tspan x="10" y="1338">| test-report - buildCustomOrg - node - linux v7.8.0 - 2017-04-11T05:12:27.322Z</tspan>
<tspan x="10" y="1354">|   43798 ms            0 failed        6 passed      |</tspan>
<tspan x="10" y="1370">-------------------------------------------------------</tspan>
<tspan x="10" y="1386"></tspan>
<tspan x="10" y="1402">created test-report file:///home/travis/build/npmdoc/node-npmdoc-gulp-concat/tmp/build/test-repo\</tspan>
<tspan x="10" y="1418">rt.html</tspan>
<tspan x="10" y="1434"></tspan>
<tspan x="10" y="1450"></tspan>
<tspan x="10" y="1466">npmTest - 0 failed tests</tspan>
<tspan x="10" y="1482"></tspan>
<tspan x="10" y="1498"></tspan>
<tspan x="10" y="1514">[MODE_BUILD=npmTest] - 2017-04-11T05:13:14Z - EXIT_CODE - 0</tspan>
</text>
</svg>
